PathFileType	3	(X/Y/Z)	D:\minhoCalibration\240510\subject1_KPNP\preferred\preferred04.trc
DataRate	CameraRate	NumFrames	NumMarkers	Units	OrigDataRate	OrigDataStartFrame	OrigNumFrames
200.0	200.0	21	10	mm	200.0	215	182	
Frame#	Time	Left_Ankle_Outer1			Left_Ankle_Inner1			Left_Knee_Outer1			Left_Knee_Inner1			Left_Wrist1			Right_Wrist1			Right_Knee_Inner1			Right_Knee_Outer1			Right_Ankle_Inner1			Right_Ankle_Outer1			
		X1	Y1	Z1	X2	Y2	Z2	X3	Y3	Z3	X4	Y4	Z4	X5	Y5	Z5	X6	Y6	Z6	X7	Y7	Z7	X8	Y8	Z8	X9	Y9	Z9	X10	Y10	Z10	
215	1.065	-557.73572	136.77017	-529.85547	-586.45459	150.59692	-480.90344	-355.6846	544.43835	-472.18616	-441.64838	536.12976	-402.37347	-436.14008	973.32233	-715.2511	-580.83661	1175.9354	-456.27365	-311.68881	992.91187	-130.35925	-359.01825	1109.235	-125.36535	-324.65167	1052.2845	321.02341	-305.06876	1146.2754	312.39355
216	1.07	-557.50238	136.63586	-529.83142	-586.48871	150.32756	-480.97418	-355.81119	543.84595	-468.61404	-441.23785	534.36206	-400.57285	-433.27924	973.76367	-708.98871	-583.85236	1176.9167	-451.75723	-306.3746	995.49774	-126.64403	-347.60199	1109.374	-125.65824	-324.34799	1047.9309	320.61801	-315.18228	1146.954	319.00577
217	1.075	-556.51904	136.65051	-529.97675	-586.01093	150.03436	-481.35229	-355.84714	543.38141	-464.75476	-441.37738	533.47424	-395.53949	-430.55774	973.84784	-702.61212	-586.74268	1177.4503	-449.31064	-304.09738	1000.672	-125.48267	-335.36987	1106.0031	-127.02953	-323.75729	1040.8379	320.20819	-329.52664	1139.4581	327.21783
218	1.08	-554.72943	136.81374	-530.39777	-585.15417	150.07478	-481.99182	-355.96243	543.13605	-460.56131	-440.30206	531.65411	-393.18756	-428.09241	973.60437	-696.57239	-590.2171	1178.2646	-446.27414	-303.75729	1004.5116	-126.44213	-328.73712	1104.3468	-129.05818	-323.3465	1033.313	317.1308	-341.01791	1127.2902	331.44998
219	1.085	-552.5719	136.92662	-530.74738	-583.82544	149.72925	-482.80249	-356.12772	543.25946	-455.95279	-440.18359	530.83344	-388.21506	-425.86716	973.20459	-690.74011	-594.00677	1178.8351	-443.82773	-305.72684	1006.4437	-126.33844	-329.54108	1105.3601	-131.36995	-327.97781	1025.6561	314.39374	-347.992	1116.9156	334.25284
220	1.09	-550.14673	137.1637	-531.31207	-582.43945	149.95616	-483.7515	-356.37747	543.77911	-451.12344	-439.61353	530.05927	-385.48541	-423.84311	972.828	-685.23871	-597.79828	1179.0679	-441.9101	-308.64279	1006.8697	-125.12537	-332.10031	1107.02	-129.88452	-334.27271	1018.3474	313.92087	-353.14383	1108.3917	335.68655
221	1.095	-547.5957	137.49854	-531.81915	-581.08124	150.01453	-485.00629	-356.55765	544.52307	-446.2236	-440.75568	530.43219	-380.67032	-421.91107	972.48279	-679.98871	-601.466	1179.1071	-440.39243	-312.11884	1006.7667	-124.45502	-336.38751	1108.7594	-127.83338	-340.56354	1009.0268	315.09155	-359.36914	1101.621	337.48264
222	1.1	-544.94476	137.9846	-532.32166	-579.51532	150.20177	-486.25806	-356.70779	545.53986	-441.44995	-442.17316	530.94366	-377.46295	-420.27664	972.21417	-674.88739	-605.10181	1179.0741	-439.12274	-313.29791	1007.4117	-126.82949	-341.67795	1110.2098	-125.8592	-347.34796	1000.9158	316.62808	-366.24207	1093.9318	338.72073
223	1.105	-542.42493	138.41914	-532.67432	-577.77429	150.38148	-487.27719	-357.23953	546.41962	-436.67358	-444.40027	531.29883	-374.92657	-418.73135	972.08527	-669.9422	-609.22339	1179.3136	-436.60046	-312.73401	1009.3684	-129.77817	-346.52463	1110.6407	-123.98122	-354.70984	991.32697	317.16449	-372.09225	1084.0875	339.42462
224	1.11	-540.25623	138.86633	-532.63501	-576.2193	150.82014	-488.22052	-357.87369	547.39178	-432.07172	-446.91492	531.96661	-372.54858	-417.34265	972.27002	-665.27954	-613.22656	1178.9949	-436.21497	-311.03384	1012.6234	-132.02904	-351.67877	1110.731	-121.92032	-359.60834	978.65576	317.04095	-376.61145	1071.3652	339.66522
225	1.115	-538.07996	139.5464	-532.64996	-574.98407	151.38638	-488.87766	-358.76245	548.22473	-427.64502	-449.27151	532.33209	-371.66504	-415.97366	972.69812	-660.72272	-617.45343	1178.4114	-435.62088	-308.80609	1016.6042	-133.45592	-357.6781	1109.9209	-119.32118	-363.05441	965.80829	315.75778	-382.00418	1056.5751	340.396
226	1.12	-536.12347	140.33557	-532.56293	-573.73297	151.75069	-489.62769	-359.70383	549.32953	-423.48892	-452.46176	533.68011	-368.54868	-414.5336	973.40771	-656.03394	-621.771	1177.5035	-434.97607	-306.91498	1020.6769	-134.05803	-363.98181	1108.2174	-116.07549	-364.60638	951.13025	313.95065	-388.21472	1040.8243	341.59763
227	1.125	-534.3736	141.34401	-532.58618	-572.24432	152.43694	-489.91687	-361.05228	550.27386	-419.48984	-455.19193	534.53955	-366.75964	-412.85928	974.3277	-651.46277	-626.02094	1176.1115	-434.13025	-306.32822	1023.6246	-133.20886	-370.36783	1105.4738	-112.51472	-367.64722	936.42371	311.69135	-395.3819	1023.8793	342.68176
228	1.13	-533.16345	142.06828	-532.06165	-571.81372	153.06744	-490.01596	-362.33331	551.3974	-415.90369	-457.59818	535.3194	-365.43039	-410.73965	975.6676	-647.06018	-630.35028	1174.2803	-433.21448	-307.69553	1023.5214	-130.32562	-377.36258	1101.6598	-108.65366	-369.52527	920.98468	309.2645	-401.72302	1005.4909	342.94986
229	1.135	-532.47791	142.76834	-531.51654	-571.409	153.50238	-489.71973	-363.56967	552.67426	-412.59491	-459.7944	536.19855	-364.07022	-408.61655	977.41382	-642.58948	-634.51929	1172.0925	-432.15567	-310.71423	1020.1461	-127.16927	-385.05334	1096.8199	-104.434	-370.95245	904.75305	307.08228	-407.41852	986.6311	343.62396
230	1.14	-532.01385	143.52867	-530.95441	-571.26007	153.99467	-489.49036	-364.9007	553.71588	-409.7832	-462.04437	537.07971	-362.66199	-405.37982	979.74274	-639.15631	-638.72559	1169.7559	-431.21646	-315.28607	1015.3215	-124.40025	-392.59555	1091.1276	-99.763649	-371.26508	886.27496	304.35672	-412.65079	966.33234	343.8996
231	1.145	-531.95898	144.10844	-530.40906	-571.34351	154.46532	-489.10846	-366.16861	554.75934	-407.46609	-463.4588	537.51306	-362.76514	-402.62863	981.70337	-635.62854	-643.06458	1167.2551	-430.6048	-320.23459	1010.0939	-122.15308	-398.90073	1084.7527	-94.962921	-374.63913	869.86761	301.94574	-417.31305	945.51416	343.49045
232	1.15	-532.25848	144.56265	-529.50861	-571.45544	155.03484	-488.57043	-367.35327	555.68414	-405.68655	-465.72131	538.63263	-361.0466	-400.52939	983.91528	-631.39697	-647.54248	1164.6237	-429.97021	-325.5881	1004.3783	-120.00008	-403.63602	1078.1362	-90.51059	-376.28079	851.38049	298.64566	-421.61374	924.99438	342.67032
233	1.155	-532.51257	145.04738	-529.10437	-571.85541	155.32611	-488.37735	-368.5683	556.41779	-404.31128	-466.74991	538.61133	-362.02689	-397.95782	986.151	-627.91461	-651.98553	1161.7513	-429.90454	-331.27539	998.3941	-117.9115	-407.5405	1071.2264	-86.475006	-378.09848	832.44806	294.6911	-425.39789	904.23669	341.1395
234	1.16	-532.62012	145.54639	-529.12286	-572.01324	155.51178	-488.01447	-370.37573	556.65125	-403.05792	-468.84857	539.53674	-360.37164	-395.62234	988.63861	-624.21063	-656.0368	1158.2572	-430.4158	-337.15448	992.37958	-115.92966	-411.79718	1063.8607	-82.640182	-381.35303	814.60883	290.34991	-429.44147	883.3457	339.33304
235	1.165	-532.92487	145.84164	-528.77136	-572.54919	155.79504	-487.82336	-371.46826	557.03967	-402.45724	-470.20721	539.80286	-360.36255	-393.6055	990.97858	-620.28796	-660.36444	1154.8877	-430.6792	-343.25189	986.2724	-114.00652	-417.57422	1056.2887	-78.938263	-382.36737	796.73059	286.61676	-433.5173	862.25018	336.77209
